<?xml version="1.0" standalone="no"?>
<!DOCTYPE svg PUBLIC "-//W3C//DTD SVG 20010904//EN"
 "http://www.w3.org/TR/2001/REC-SVG-20010904/DTD/svg10.dtd">
<svg version="1.0" xmlns="http://www.w3.org/2000/svg"
 width="200.000000pt" height="200.000000pt" viewBox="0 0 200.000000 200.000000"
 preserveAspectRatio="xMidYMid meet">
<metadata>
Created by potrace 1.15, written by Peter Selinger 2001-2017
</metadata>
<g transform="translate(0.000000,200.000000) scale(0.100000,-0.100000)"
fill="#000000" stroke="none">
<path d="M931 1375 c-39 -103 -71 -193 -71 -201 0 -38 26 -1 93 133 l74 146
81 -155 c75 -142 82 -161 82 -212 l0 -57 59 43 c33 24 81 58 107 77 46 33 47
34 41 10 -3 -13 -8 -53 -12 -89 l-7 -65 84 -100 c63 -76 90 -101 111 -103 15
-2 27 1 27 6 0 9 -169 424 -175 430 -2 2 -26 -8 -54 -24 l-51 -27 -19 24 c-69
88 -284 345 -290 347 -5 1 -40 -81 -80 -183z"/>
<path d="M528 1038 c-103 -187 -127 -241 -98 -223 4 3 61 88 126 189 l119 184
52 -82 c29 -44 53 -84 53 -88 0 -3 -16 -34 -34 -67 -31 -53 -34 -65 -24 -91
l10 -30 134 0 c78 0 134 4 134 9 0 6 -16 22 -35 37 -25 19 -34 32 -30 48 20
100 18 110 -29 162 -41 46 -222 164 -250 164 -6 0 -64 -96 -128 -212z"/>
</g>
</svg>
